<svg id="Layer_1" data-name="Layer 1" xmlns="http://www.w3.org/2000/svg" xmlns:xlink="http://www.w3.org/1999/xlink" viewBox="0 0 500.27 349.8" width="368" height="368"><defs><style>
      .cls-1 {
        fill: url(#linear-gradient);
      }
    </style><linearGradient id="linear-gradient" x1="251.04" y1="79.4" x2="251.04" y2="429.2" gradientUnits="userSpaceOnUse"><stop offset="0" stop-color="#aecfe2"/><stop offset="1" stop-color="#4693bd"/></linearGradient></defs><title>80 Инфраструктура с защитой персональных данных</title><path class="cls-1" d="M499.51,141.33l-1.28-10.23-10.3.62c-13.92.84-24.34-2.2-31-9-11.14-11.53-9.44-31-9.43-31.14L448.8,79.4h-220v.1H33.1A32.23,32.23,0,0,0,.9,111.7V336.3a32.24,32.24,0,0,0,32.2,32.2H141.9v38.7H84.6v22H305.8V417.25a233.4,233.4,0,0,0,28.83,11.42l1.64.53h5.06l1.64-.53C385.34,415,420,391.24,446,358c20.64-26.44,35.76-58.8,45-96.18C506.44,198.75,499.8,143.65,499.51,141.33ZM33.1,101.5H229.69c-.84,6.5-3.12,14.88-9,21-6.62,6.92-17.06,10-31,9.18l-10.28-.61-1.28,10.22c-.29,2.32-6.93,57.42,8.58,120.45,1.09,4.45,2.28,8.82,3.54,13.12H22.9V111.7A10.34,10.34,0,0,1,33.1,101.5ZM22.9,336.3V296.9H197.63a242.86,242.86,0,0,0,25.67,49.6H33.1A10.34,10.34,0,0,1,22.9,336.3Zm141,32.2h63.4v38.7H163.9Zm85.4,38.7V377.82a203.45,203.45,0,0,0,37.81,29.38ZM469.57,256.52c-19,77.06-62.95,127.63-130.77,150.36-67.63-22.66-111.57-73-130.62-149.74-11-44.32-10.2-85.4-9.07-103.44,15.63-.94,28.2-6.28,37.45-15.94,10.9-11.38,14.3-26.13,15.25-36.36h174c.93,10.25,4.32,25,15.23,36.41,9.26,9.66,21.84,15,37.5,15.91C479.63,171.65,480.44,212.33,469.57,256.52ZM410.5,189.26l16.2,14.89L312.94,327.88l-61.81-61.69,15.54-15.57,45.59,45.5ZM79.4,156.7c0-14.9,3.2-26.9,22.1-26.9s22.1,12,22.1,26.9-9.9,26.9-22.1,26.9S79.4,171.6,79.4,156.7Zm22.1,95.4h.1c40,0,46.9-13.9,46.9-13.9,0-1.6,0-2.9-.1-5.2-.5-28.3-4.5-36.4-33.2-41.6,0,0-4.1,5.2-13.6,5.2h-.1c-9.5,0-13.6-5.2-13.6-5.2-28.6,5.2-32.7,13.3-33.2,41.6-.1,2.3-.1,3.6-.1,5.2C54.6,238.2,61.5,252.1,101.5,252.1ZM78.2,216.9a21.63,21.63,0,0,1,5.3-2,44.06,44.06,0,0,0,17.8,3.7h.1a43.61,43.61,0,0,0,18-3.7,19.78,19.78,0,0,1,5.3,2c.4,1,1.1,3.5,1.4,10.3-4.4,1.4-12,3-24.6,3h-.1c-12.6,0-20.2-1.6-24.6-3C77.2,220.4,77.8,217.9,78.2,216.9ZM205.6,320.7A10.6,10.6,0,1,1,195,310.1,10.61,10.61,0,0,1,205.6,320.7Z" transform="translate(-0.9 -79.4)"/></svg>